<svg xmlns="http://www.w3.org/2000/svg" xmlns:xlink="http://www.w3.org/1999/xlink" width="500" zoomAndPan="magnify" viewBox="0 0 375 374.999991" height="500" preserveAspectRatio="xMidYMid meet" version="1.0"><defs><clipPath id="c0c535dbd1"><path d="M 37.5 255.445312 L 336 255.445312 L 336 368.207031 L 37.5 368.207031 Z M 37.5 255.445312 " clip-rule="nonzero"/></clipPath><clipPath id="1ac3e3ec85"><path d="M 78 6.386719 L 296 6.386719 L 296 225 L 78 225 Z M 78 6.386719 " clip-rule="nonzero"/></clipPath></defs><g clip-path="url(#c0c535dbd1)"><path fill="#ffffff" d="M 66.183594 368.207031 C 66.183594 321.945312 104.039062 284.359375 150.300781 284.359375 L 223.503906 284.359375 C 269.765625 284.359375 306.894531 321.945312 306.894531 368.207031 L 336.304688 368.207031 C 336.304688 306.042969 285.703125 255.445312 223.503906 255.445312 L 150.300781 255.445312 C 88.101562 255.445312 37.5 306.042969 37.5 368.207031 L 66.183594 368.207031 " fill-opacity="1" fill-rule="nonzero"/></g><g clip-path="url(#1ac3e3ec85)"><path fill="#ffffff" d="M 186.902344 35.683594 C 230.992188 35.683594 266.855469 71.550781 266.855469 115.640625 C 266.855469 159.730469 230.992188 195.597656 186.902344 195.597656 C 142.8125 195.597656 106.945312 159.730469 106.945312 115.640625 C 106.945312 71.550781 142.8125 35.683594 186.902344 35.683594 Z M 186.902344 224.5 C 246.929688 224.5 295.757812 175.667969 295.757812 115.640625 C 295.757812 55.613281 246.929688 6.78125 186.902344 6.78125 C 126.875 6.78125 78.042969 55.613281 78.042969 115.640625 C 78.042969 175.667969 126.875 224.5 186.902344 224.5 " fill-opacity="1" fill-rule="nonzero"/></g></svg>