<svg xmlns="http://www.w3.org/2000/svg" xmlns:xlink="http://www.w3.org/1999/xlink" width="500" zoomAndPan="magnify" viewBox="0 0 375 374.999991" height="500" preserveAspectRatio="xMidYMid meet" version="1.0"><defs><clipPath id="4e11db9b0f"><path d="M 10.738281 41.433594 L 363.964844 41.433594 L 363.964844 100 L 10.738281 100 Z M 10.738281 41.433594 " clip-rule="nonzero"/></clipPath><clipPath id="c14afd6762"><path d="M 10.738281 158 L 363.964844 158 L 363.964844 217 L 10.738281 217 Z M 10.738281 158 " clip-rule="nonzero"/></clipPath><clipPath id="2eb773bb2d"><path d="M 10.738281 275 L 363.964844 275 L 363.964844 333.613281 L 10.738281 333.613281 Z M 10.738281 275 " clip-rule="nonzero"/></clipPath></defs><g clip-path="url(#4e11db9b0f)"><path fill="#ffffff" d="M 335.050781 99.867188 L 39.953125 99.867188 C 23.816406 99.867188 10.738281 86.789062 10.738281 70.648438 C 10.738281 54.515625 23.816406 41.4375 39.953125 41.4375 L 335.050781 41.4375 C 351.1875 41.4375 364.269531 54.515625 364.269531 70.648438 C 364.269531 86.789062 351.1875 99.867188 335.050781 99.867188 " fill-opacity="1" fill-rule="nonzero"/></g><g clip-path="url(#c14afd6762)"><path fill="#ffffff" d="M 335.050781 216.738281 L 39.953125 216.738281 C 23.816406 216.738281 10.738281 203.660156 10.738281 187.523438 C 10.738281 171.382812 23.816406 158.304688 39.953125 158.304688 L 335.050781 158.304688 C 351.1875 158.304688 364.269531 171.382812 364.269531 187.523438 C 364.269531 203.660156 351.1875 216.738281 335.050781 216.738281 " fill-opacity="1" fill-rule="nonzero"/></g><g clip-path="url(#2eb773bb2d)"><path fill="#ffffff" d="M 335.050781 333.613281 L 39.953125 333.613281 C 23.816406 333.613281 10.738281 320.53125 10.738281 304.394531 C 10.738281 288.253906 23.816406 275.175781 39.953125 275.175781 L 335.050781 275.175781 C 351.1875 275.175781 364.269531 288.253906 364.269531 304.394531 C 364.269531 320.53125 351.1875 333.613281 335.050781 333.613281 " fill-opacity="1" fill-rule="nonzero"/></g></svg>