<svg xmlns="http://www.w3.org/2000/svg" xmlns:xlink="http://www.w3.org/1999/xlink" width="500" zoomAndPan="magnify" viewBox="0 0 375 374.999991" height="500" preserveAspectRatio="xMidYMid meet" version="1.0"><defs><clipPath id="2387e25ac0"><path d="M 37.5 37.5 L 337.5 37.5 L 337.5 337.5 L 37.5 337.5 Z M 37.5 37.5 " clip-rule="nonzero"/></clipPath></defs><g clip-path="url(#2387e25ac0)"><path fill="#f8b701" d="M 337.5 187.5 C 337.5 189.957031 337.441406 192.410156 337.320312 194.859375 C 337.199219 197.3125 337.019531 199.761719 336.777344 202.203125 C 336.535156 204.648438 336.238281 207.082031 335.875 209.511719 C 335.515625 211.9375 335.097656 214.355469 334.617188 216.765625 C 334.140625 219.171875 333.601562 221.566406 333.003906 223.949219 C 332.40625 226.328125 331.753906 228.695312 331.042969 231.042969 C 330.328125 233.394531 329.558594 235.722656 328.730469 238.035156 C 327.90625 240.34375 327.019531 242.636719 326.082031 244.902344 C 325.140625 247.171875 324.148438 249.414062 323.097656 251.632812 C 322.046875 253.851562 320.945312 256.046875 319.789062 258.210938 C 318.632812 260.375 317.421875 262.511719 316.160156 264.617188 C 314.898438 266.722656 313.585938 268.796875 312.21875 270.835938 C 310.855469 272.878906 309.445312 274.882812 307.980469 276.855469 C 306.519531 278.828125 305.007812 280.761719 303.453125 282.660156 C 301.894531 284.558594 300.292969 286.414062 298.644531 288.234375 C 296.992188 290.054688 295.300781 291.832031 293.566406 293.566406 C 291.832031 295.300781 290.054688 296.996094 288.234375 298.644531 C 286.414062 300.292969 284.554688 301.894531 282.660156 303.453125 C 280.761719 305.011719 278.828125 306.519531 276.855469 307.980469 C 274.882812 309.445312 272.875 310.855469 270.835938 312.222656 C 268.792969 313.585938 266.722656 314.898438 264.617188 316.160156 C 262.511719 317.421875 260.375 318.632812 258.210938 319.789062 C 256.042969 320.945312 253.851562 322.050781 251.632812 323.097656 C 249.414062 324.148438 247.171875 325.144531 244.902344 326.082031 C 242.632812 327.023438 240.34375 327.90625 238.035156 328.734375 C 235.722656 329.558594 233.390625 330.328125 231.042969 331.042969 C 228.695312 331.753906 226.328125 332.410156 223.945312 333.003906 C 221.566406 333.601562 219.171875 334.140625 216.761719 334.617188 C 214.355469 335.097656 211.9375 335.515625 209.507812 335.878906 C 207.082031 336.238281 204.644531 336.539062 202.203125 336.777344 C 199.757812 337.019531 197.3125 337.199219 194.859375 337.320312 C 192.410156 337.441406 189.953125 337.5 187.5 337.5 C 185.046875 337.5 182.589844 337.441406 180.140625 337.320312 C 177.6875 337.199219 175.242188 337.019531 172.796875 336.777344 C 170.355469 336.539062 167.917969 336.238281 165.492188 335.878906 C 163.0625 335.515625 160.644531 335.097656 158.238281 334.617188 C 155.828125 334.140625 153.433594 333.601562 151.054688 333.003906 C 148.671875 332.410156 146.304688 331.753906 143.957031 331.042969 C 141.609375 330.328125 139.277344 329.558594 136.964844 328.734375 C 134.65625 327.90625 132.367188 327.023438 130.097656 326.082031 C 127.828125 325.144531 125.585938 324.148438 123.367188 323.097656 C 121.148438 322.050781 118.957031 320.945312 116.789062 319.789062 C 114.625 318.632812 112.488281 317.421875 110.382812 316.160156 C 108.277344 314.898438 106.207031 313.585938 104.164062 312.222656 C 102.125 310.855469 100.117188 309.445312 98.144531 307.980469 C 96.171875 306.519531 94.238281 305.007812 92.339844 303.453125 C 90.445312 301.894531 88.585938 300.292969 86.765625 298.644531 C 84.945312 296.996094 83.167969 295.300781 81.433594 293.566406 C 79.699219 291.832031 78.007812 290.054688 76.355469 288.234375 C 74.707031 286.414062 73.105469 284.558594 71.546875 282.660156 C 69.992188 280.761719 68.480469 278.828125 67.019531 276.855469 C 65.554688 274.882812 64.144531 272.878906 62.78125 270.835938 C 61.414062 268.796875 60.101562 266.722656 58.839844 264.617188 C 57.578125 262.511719 56.367188 260.375 55.210938 258.210938 C 54.054688 256.046875 52.953125 253.851562 51.902344 251.632812 C 50.851562 249.414062 49.859375 247.171875 48.917969 244.902344 C 47.980469 242.636719 47.09375 240.34375 46.269531 238.035156 C 45.441406 235.722656 44.671875 233.394531 43.957031 231.042969 C 43.246094 228.695312 42.589844 226.328125 41.996094 223.949219 C 41.398438 221.566406 40.859375 219.171875 40.382812 216.765625 C 39.902344 214.355469 39.484375 211.9375 39.125 209.511719 C 38.761719 207.082031 38.464844 204.648438 38.222656 202.203125 C 37.980469 199.761719 37.800781 197.3125 37.679688 194.859375 C 37.558594 192.410156 37.5 189.957031 37.5 187.5 C 37.5 185.046875 37.558594 182.59375 37.679688 180.140625 C 37.800781 177.6875 37.980469 175.242188 38.222656 172.796875 C 38.464844 170.355469 38.761719 167.917969 39.125 165.492188 C 39.484375 163.0625 39.902344 160.644531 40.382812 158.238281 C 40.859375 155.828125 41.398438 153.433594 41.996094 151.054688 C 42.589844 148.671875 43.246094 146.308594 43.957031 143.957031 C 44.671875 141.609375 45.441406 139.277344 46.269531 136.96875 C 47.09375 134.65625 47.980469 132.367188 48.917969 130.097656 C 49.859375 127.832031 50.851562 125.585938 51.902344 123.367188 C 52.953125 121.148438 54.054688 118.957031 55.210938 116.792969 C 56.367188 114.625 57.578125 112.492188 58.839844 110.386719 C 60.101562 108.28125 61.414062 106.207031 62.78125 104.164062 C 64.144531 102.125 65.554688 100.117188 67.019531 98.144531 C 68.480469 96.175781 69.992188 94.238281 71.546875 92.339844 C 73.105469 90.445312 74.707031 88.585938 76.355469 86.765625 C 78.007812 84.949219 79.699219 83.171875 81.433594 81.433594 C 83.167969 79.699219 84.945312 78.007812 86.765625 76.359375 C 88.585938 74.710938 90.445312 73.105469 92.339844 71.550781 C 94.238281 69.992188 96.171875 68.480469 98.144531 67.019531 C 100.117188 65.558594 102.125 64.144531 104.164062 62.78125 C 106.207031 61.417969 108.277344 60.101562 110.382812 58.839844 C 112.488281 57.578125 114.625 56.371094 116.789062 55.210938 C 118.957031 54.054688 121.148438 52.953125 123.367188 51.902344 C 125.585938 50.851562 127.828125 49.859375 130.097656 48.917969 C 132.367188 47.980469 134.65625 47.097656 136.964844 46.269531 C 139.277344 45.441406 141.609375 44.671875 143.957031 43.960938 C 146.304688 43.246094 148.671875 42.59375 151.054688 41.996094 C 153.433594 41.398438 155.828125 40.863281 158.238281 40.382812 C 160.644531 39.902344 163.0625 39.484375 165.492188 39.125 C 167.917969 38.765625 170.355469 38.464844 172.796875 38.222656 C 175.242188 37.984375 177.6875 37.800781 180.140625 37.679688 C 182.589844 37.5625 185.046875 37.5 187.5 37.5 C 189.953125 37.5 192.410156 37.5625 194.859375 37.679688 C 197.3125 37.800781 199.757812 37.984375 202.203125 38.222656 C 204.644531 38.464844 207.082031 38.765625 209.507812 39.125 C 211.9375 39.484375 214.355469 39.902344 216.761719 40.382812 C 219.171875 40.863281 221.566406 41.398438 223.945312 41.996094 C 226.328125 42.59375 228.695312 43.246094 231.042969 43.960938 C 233.390625 44.671875 235.722656 45.441406 238.035156 46.269531 C 240.34375 47.097656 242.632812 47.980469 244.902344 48.917969 C 247.171875 49.859375 249.414062 50.851562 251.632812 51.902344 C 253.851562 52.953125 256.042969 54.054688 258.210938 55.210938 C 260.375 56.371094 262.511719 57.578125 264.617188 58.839844 C 266.722656 60.101562 268.792969 61.417969 270.835938 62.78125 C 272.875 64.144531 274.882812 65.558594 276.855469 67.019531 C 278.828125 68.480469 280.761719 69.992188 282.660156 71.550781 C 284.554688 73.105469 286.414062 74.710938 288.234375 76.359375 C 290.054688 78.007812 291.832031 79.699219 293.566406 81.433594 C 295.300781 83.171875 296.992188 84.949219 298.644531 86.765625 C 300.292969 88.585938 301.894531 90.445312 303.453125 92.339844 C 305.007812 94.238281 306.519531 96.175781 307.980469 98.144531 C 309.445312 100.117188 310.855469 102.125 312.21875 104.164062 C 313.585938 106.207031 314.898438 108.28125 316.160156 110.386719 C 317.421875 112.492188 318.632812 114.625 319.789062 116.792969 C 320.945312 118.957031 322.046875 121.148438 323.097656 123.367188 C 324.148438 125.585938 325.140625 127.832031 326.082031 130.097656 C 327.019531 132.367188 327.90625 134.65625 328.730469 136.96875 C 329.558594 139.277344 330.328125 141.609375 331.042969 143.957031 C 331.753906 146.308594 332.40625 148.671875 333.003906 151.054688 C 333.601562 153.433594 334.140625 155.828125 334.617188 158.238281 C 335.097656 160.644531 335.515625 163.0625 335.875 165.492188 C 336.238281 167.917969 336.535156 170.355469 336.777344 172.796875 C 337.019531 175.242188 337.199219 177.6875 337.320312 180.140625 C 337.441406 182.59375 337.5 185.046875 337.5 187.5 Z M 337.5 187.5 " fill-opacity="1" fill-rule="nonzero"/></g><path fill="#201715" d="M 215.703125 118.878906 C 218.109375 129.0625 227.273438 136.648438 238.191406 136.648438 C 250.949219 136.648438 261.289062 126.3125 261.289062 113.546875 C 261.289062 100.804688 250.949219 90.464844 238.191406 90.464844 C 227.042969 90.464844 217.742188 98.359375 215.570312 108.871094 C 196.894531 110.871094 182.304688 126.714844 182.304688 145.925781 L 182.304688 146.046875 C 161.996094 146.894531 143.433594 152.683594 128.707031 161.8125 C 123.238281 157.578125 116.386719 155.054688 108.9375 155.054688 C 91.050781 155.054688 76.558594 169.527344 76.558594 187.414062 C 76.558594 200.390625 84.179688 211.578125 95.191406 216.730469 C 96.269531 254.308594 137.214844 284.535156 187.578125 284.535156 C 237.9375 284.535156 278.941406 254.277344 279.964844 216.65625 C 290.878906 211.457031 298.445312 200.332031 298.445312 187.433594 C 298.445312 169.546875 283.949219 155.054688 266.085938 155.054688 C 258.652344 155.054688 251.816406 157.558594 246.371094 161.769531 C 231.507812 152.570312 212.753906 146.792969 192.234375 146.023438 L 192.234375 145.925781 C 192.234375 132.183594 202.460938 120.769531 215.703125 118.898438 Z M 127.417969 207.953125 C 127.953125 196.210938 135.75 187.203125 144.820312 187.203125 C 153.886719 187.203125 160.816406 196.734375 160.257812 208.476562 C 159.722656 220.203125 152.964844 224.472656 143.878906 224.472656 C 134.808594 224.472656 126.878906 219.699219 127.417969 207.953125 Z M 230.355469 187.203125 C 239.421875 187.203125 247.21875 196.210938 247.757812 207.953125 C 248.292969 219.699219 240.34375 224.472656 231.277344 224.472656 C 222.226562 224.472656 215.433594 220.214844 214.894531 208.476562 C 214.359375 196.734375 221.285156 187.203125 230.355469 187.203125 Z M 219.570312 235.121094 C 221.265625 235.292969 222.347656 237.0625 221.691406 238.644531 C 216.105469 251.964844 202.9375 261.339844 187.578125 261.339844 C 172.214844 261.339844 159.046875 251.964844 153.464844 238.644531 C 152.808594 237.0625 153.886719 235.292969 155.582031 235.121094 C 165.550781 234.117188 176.335938 233.5625 187.578125 233.5625 C 198.839844 233.5625 209.601562 234.117188 219.570312 235.121094 Z M 219.570312 235.121094 " fill-opacity="1" fill-rule="nonzero"/></svg>