<svg xmlns="http://www.w3.org/2000/svg" xmlns:xlink="http://www.w3.org/1999/xlink" width="500" zoomAndPan="magnify" viewBox="0 0 375 374.999991" height="500" preserveAspectRatio="xMidYMid meet" version="1.0"><defs><clipPath id="f542c8c8e6"><path d="M 37.5 84.9375 L 337.5 84.9375 L 337.5 290 L 37.5 290 Z M 37.5 84.9375 " clip-rule="nonzero"/></clipPath></defs><g clip-path="url(#f542c8c8e6)"><path fill="#f8b701" d="M 324.765625 104.722656 C 316.640625 90.332031 307.816406 87.691406 289.863281 86.683594 C 271.925781 85.472656 226.820312 84.96875 187.75 84.96875 C 148.601562 84.96875 103.476562 85.46875 85.558594 86.660156 C 67.644531 87.691406 58.589844 90.316406 50.390625 104.722656 C 42.019531 119.09375 37.5 143.84375 37.5 187.414062 L 37.5 187.566406 C 37.5 230.949219 42.019531 255.882812 50.390625 270.101562 C 58.589844 284.492188 67.511719 287.101562 85.433594 288.308594 C 103.367188 289.355469 148.542969 289.972656 187.695312 289.972656 C 226.765625 289.972656 271.894531 289.355469 289.851562 288.332031 C 307.804688 287.121094 316.640625 284.511719 324.765625 270.125 C 333.210938 255.902344 337.5 230.96875 337.5 187.582031 L 337.5 187.433594 C 337.5 143.84375 333.222656 119.09375 324.765625 104.722656 Z M 150 243.382812 L 150 131.558594 L 243.613281 187.46875 Z M 150 243.382812 " fill-opacity="1" fill-rule="nonzero"/></g></svg>