<svg xmlns="http://www.w3.org/2000/svg" xmlns:xlink="http://www.w3.org/1999/xlink" width="500" zoomAndPan="magnify" viewBox="0 0 375 374.999991" height="500" preserveAspectRatio="xMidYMid meet" version="1.0"><defs><clipPath id="4281b394bc"><path d="M 37.5 37.5 L 337.5 37.5 L 337.5 336.75 L 37.5 336.75 Z M 37.5 37.5 " clip-rule="nonzero"/></clipPath></defs><g clip-path="url(#4281b394bc)"><path fill="#f8b701" d="M 337.527344 187.515625 C 337.527344 104.65625 270.371094 37.5 187.527344 37.5 C 104.683594 37.5 37.511719 104.65625 37.511719 187.515625 C 37.511719 257.863281 85.941406 316.902344 151.28125 333.113281 L 151.28125 233.359375 L 120.34375 233.359375 L 120.34375 187.515625 L 151.28125 187.515625 L 151.28125 167.761719 C 151.28125 116.707031 174.386719 93.039062 224.511719 93.039062 C 234.019531 93.039062 250.417969 94.898438 257.121094 96.769531 L 257.121094 138.316406 C 253.582031 137.941406 247.429688 137.753906 239.792969 137.753906 C 215.195312 137.753906 205.691406 147.070312 205.691406 171.289062 L 205.691406 187.5 L 254.683594 187.5 L 246.269531 233.347656 L 205.691406 233.347656 L 205.691406 336.410156 C 279.96875 327.445312 337.527344 264.191406 337.527344 187.5 Z M 337.527344 187.515625 " fill-opacity="1" fill-rule="nonzero"/></g></svg>